<svg version="1.1" id="Layer_1" xmlns="http://www.w3.org/2000/svg" xmlns:xlink="http://www.w3.org/1999/xlink" x="0px" y="0px"
	 width="100%" viewBox="0 0 1024 890" enable-background="new 0 0 1024 890" xml:space="preserve">
<path fill="#61DAFB" opacity="1.000000" stroke="none" 
	d="
M739.000000,891.000000 
	C720.979126,891.000000 702.958191,891.000000 684.803101,890.680237 
	C684.179443,889.929749 683.739258,889.201904 683.193481,889.111450 
	C665.961914,886.256958 650.060547,879.556396 634.479919,872.060547 
	C615.478027,862.918701 597.718689,851.761108 580.604126,839.390747 
	C560.538696,824.887451 541.491211,809.264954 523.612183,792.167908 
	C520.200806,788.905701 516.469604,785.977844 512.992188,782.987061 
	C509.563904,785.900452 506.306763,788.655212 503.063721,791.426514 
	C487.016724,805.139038 471.301514,819.265198 454.838531,832.458374 
	C437.650604,846.232544 419.040344,858.019226 399.444489,868.158264 
	C381.456940,877.465210 362.947113,885.384033 342.886017,889.134094 
	C342.488281,889.208435 342.290863,890.354126 342.000000,891.000000 
	C323.979095,891.000000 305.958221,891.000000 287.799133,890.691101 
	C287.181488,889.944580 286.767303,889.244873 286.213257,889.106995 
	C258.053711,882.099731 238.200150,864.525940 224.402603,839.736267 
	C210.176056,814.175781 205.546890,786.002563 204.170349,757.290527 
	C203.513199,743.583313 204.274826,729.765503 205.108887,716.041260 
	C205.952713,702.156189 206.935135,688.201904 209.195923,674.498840 
	C212.526047,654.314331 217.043182,634.325745 221.064087,614.206726 
	C210.811874,610.926086 200.056061,607.575989 189.360382,604.043823 
	C161.111664,594.715088 133.701080,583.412659 107.655846,568.950684 
	C84.048454,555.842407 61.988888,540.752747 43.809418,520.425598 
	C33.853790,509.293793 25.451878,497.344116 19.773554,483.448669 
	C10.744963,461.354858 9.629183,439.111176 16.870487,416.275299 
	C23.078835,396.696960 34.485897,380.381958 48.676479,366.163635 
	C58.223740,356.597687 68.923599,347.975555 79.975716,340.158203 
	C108.928429,319.679443 141.088669,305.299713 174.220459,293.116608 
	C189.877487,287.359222 205.896240,282.585541 220.652908,277.727722 
	C216.751770,256.288605 212.530365,235.020203 209.111359,213.623550 
	C206.819000,199.277740 204.610168,184.775116 204.266479,170.297501 
	C203.831711,151.981995 205.024399,133.602890 206.087891,115.284470 
	C206.974777,100.007774 210.735870,85.236145 215.979462,70.865723 
	C221.132370,56.743877 228.157379,43.644974 238.189163,32.382294 
	C251.182739,17.794405 266.893341,7.457777 286.112854,2.870634 
	C286.533447,2.770254 286.709747,1.646412 287.000000,0.999999 
	C305.020905,1.000000 323.041779,1.000000 341.196899,1.320140 
	C341.820801,2.070742 342.261505,2.798528 342.807312,2.888526 
	C360.035706,5.729162 375.891113,12.510719 391.512451,19.906370 
	C410.602478,28.944242 428.229065,40.349300 445.395020,52.637463 
	C465.522552,67.045654 484.499115,82.746216 502.381165,99.826233 
	C505.790497,103.082642 509.513092,106.011047 512.899597,108.925926 
	C525.673950,97.725113 537.985046,86.317207 550.961487,75.724380 
	C564.042664,65.046028 577.479553,54.741077 591.314636,45.064697 
	C608.282837,33.197029 626.078613,22.510864 645.483459,15.052596 
	C657.472717,10.444530 669.907043,6.997384 682.112183,2.940857 
	C682.872498,2.688165 683.376648,1.664800 684.000000,0.999997 
	C702.020874,1.000000 720.041809,1.000000 738.199158,1.307415 
	C738.813843,2.053364 739.226379,2.754175 739.779724,2.892837 
	C767.913696,9.942111 787.837646,27.421038 801.611694,52.271118 
	C815.790161,77.850792 820.453735,106.004639 821.829651,134.713425 
	C822.486572,148.420746 821.723694,162.238480 820.891174,175.962967 
	C820.049316,189.842102 819.074036,203.791138 816.813599,217.487793 
	C813.481384,237.678131 808.958923,257.671997 804.972473,277.604279 
	C818.128723,281.968048 831.753906,286.392426 845.314758,291.005798 
	C870.592834,299.605286 895.058533,310.093811 918.415588,323.070404 
	C941.558228,335.927856 963.183899,350.730133 981.173767,370.515259 
	C991.571716,381.950806 1000.259216,394.275391 1006.238464,408.573975 
	C1015.614563,430.995483 1016.348083,453.742401 1008.920166,476.696777 
	C1002.689148,495.952393 991.036682,512.012390 977.027527,526.222778 
	C969.599304,533.757690 961.013550,540.198242 952.664917,546.770264 
	C929.060181,565.351929 902.374878,578.623962 874.754150,589.790588 
	C851.669617,599.123352 827.908813,606.782959 805.451294,614.824097 
	C809.248962,635.702576 813.702881,656.948975 816.828735,678.388977 
	C819.376709,695.865601 820.929688,713.544373 821.804993,731.188965 
	C822.459839,744.390564 821.505737,757.688110 820.920471,770.927612 
	C820.661743,776.780334 820.169861,782.759644 818.690125,788.394226 
	C815.132507,801.941406 811.487366,815.516724 806.817261,828.705139 
	C802.739075,840.221924 795.957520,850.506531 787.779480,859.624268 
	C774.761902,874.137756 759.114746,884.585266 739.876770,889.130005 
	C739.460510,889.228394 739.286804,890.353760 739.000000,891.000000 
M343.495483,469.996735 
	C351.662628,484.894196 359.412384,500.039703 368.087494,514.635254 
	C384.104187,541.582764 400.829193,568.109192 416.867004,595.044495 
	C420.373383,600.933472 424.670898,603.795288 431.303955,604.028076 
	C447.656769,604.601929 464.002808,605.843933 480.354004,605.886658 
	C508.776611,605.960999 537.201843,605.388245 565.624329,604.969727 
	C575.218689,604.828552 584.807922,604.334473 594.399414,603.998108 
	C600.654968,603.778748 605.663269,601.937012 608.848450,595.745239 
	C612.163757,589.300659 616.513916,583.394653 620.295288,577.182434 
	C633.569702,555.374634 647.276733,533.810974 659.894836,511.628571 
	C671.336060,491.515076 681.502075,470.678497 692.409058,450.256195 
	C694.078247,447.130737 694.018860,444.758301 692.344360,441.680786 
	C676.802307,413.116058 661.997375,384.132080 645.791138,355.952667 
	C633.064941,333.824463 618.676147,312.651611 604.954346,291.099915 
	C604.360474,290.167145 603.088379,289.159607 602.065063,289.082977 
	C587.139404,287.965546 572.206482,286.240906 557.266968,286.156952 
	C525.345642,285.977570 493.418732,286.613190 461.495667,287.031586 
	C451.568756,287.161652 441.580292,287.107971 431.755341,288.276337 
	C427.837738,288.742188 422.939026,287.217743 419.722046,292.541290 
	C405.428070,316.195404 389.970703,339.164551 376.174255,363.096344 
	C361.314819,388.872131 347.888275,415.472229 333.689636,441.632965 
	C332.022400,444.704803 331.833557,447.090698 333.543243,450.216766 
	C336.961151,456.466217 339.908203,462.973267 343.495483,469.996735 
M266.524017,625.093201 
	C265.681976,626.454712 264.364960,627.721008 264.069885,629.192261 
	C260.282135,648.077332 256.034882,666.899780 253.144226,685.926453 
	C250.615524,702.570618 249.036026,719.422913 248.222397,736.240601 
	C247.700775,747.022461 249.398880,757.904541 249.975967,768.748413 
	C250.715485,782.644470 253.901123,796.048889 259.136719,808.819031 
	C265.238617,823.702271 274.099731,836.414734 289.630341,843.289490 
	C304.469208,849.858154 319.653473,849.042297 334.748840,845.531311 
	C358.608124,839.981995 380.191193,828.993652 400.657928,815.796997 
	C428.923981,797.571411 454.931335,776.513550 478.751770,752.760498 
	C479.634064,751.880615 480.716919,751.201782 481.608582,750.505615 
	C476.597778,744.695923 471.557922,738.840393 466.504700,732.996399 
	C457.920654,723.069092 448.884003,713.494629 440.837494,703.149658 
	C426.786011,685.084351 413.416260,666.489929 399.523071,648.298828 
	C398.184418,646.546082 395.257660,645.410706 392.926910,645.119690 
	C384.957886,644.124634 376.894226,643.887085 368.925354,642.891174 
	C357.630249,641.479492 346.377228,639.715942 335.124817,637.982117 
	C323.724121,636.225403 312.314697,634.494568 300.966888,632.433899 
	C289.653748,630.379456 278.412384,627.929688 266.524017,625.093201 
M256.043335,90.828529 
	C256.004852,91.659157 256.169220,92.563469 255.898132,93.309593 
	C249.730667,110.285965 248.611282,128.126526 248.263916,145.826859 
	C247.974731,160.563248 249.762329,175.366058 251.080429,190.099152 
	C251.935287,199.654160 253.390427,209.171341 254.956543,218.642654 
	C256.753204,229.508072 258.842194,240.330261 261.057953,251.119110 
	C262.167358,256.520782 263.840668,261.806641 265.084595,266.488831 
	C279.292694,263.873566 292.629333,261.304443 306.009338,258.985382 
	C322.003448,256.213135 337.989319,253.327072 354.063812,251.105606 
	C367.338318,249.271103 380.747803,248.428741 394.067383,246.886948 
	C395.963348,246.667496 398.249207,245.406677 399.399475,243.899094 
	C405.105011,236.421188 410.252411,228.513306 416.036163,221.099976 
	C429.469543,203.881775 442.982605,186.719223 456.805725,169.814102 
	C464.779999,160.061935 473.420502,150.854584 481.687164,141.485855 
	C480.821686,140.886841 479.952545,140.417130 479.241180,139.773132 
	C468.501495,130.051025 458.068573,119.964920 446.976868,110.664024 
	C436.270660,101.686401 425.107605,93.210159 413.756287,85.055115 
	C395.058044,71.621925 375.201111,60.169247 353.509247,52.163784 
	C336.673340,45.950424 319.500153,41.703484 301.409821,45.055141 
	C289.051483,47.344807 278.866699,53.309460 270.836151,63.324062 
	C264.326202,71.442307 260.149048,80.598595 256.043335,90.828529 
M552.999023,133.501709 
	C550.140076,136.214996 547.281067,138.928299 544.492188,141.575073 
	C546.682251,144.213181 549.047302,147.136047 551.490295,149.992249 
	C563.430176,163.951813 575.800903,177.567017 587.237122,191.926926 
	C600.593079,208.697449 613.092468,226.148575 626.112000,243.191010 
	C627.389282,244.862946 629.586060,246.553864 631.559937,246.842636 
	C638.678894,247.884140 645.890808,248.273865 653.056946,249.013626 
	C662.321777,249.970047 671.617798,250.746109 680.824707,252.110626 
	C692.212830,253.798386 703.532532,255.959167 714.865051,258.008087 
	C730.116699,260.765625 745.352417,263.611450 760.848694,266.466125 
	C761.149902,265.606049 761.733887,264.425873 761.973999,263.179443 
	C765.682739,243.932236 769.848755,224.754623 772.863159,205.398041 
	C775.301270,189.742111 776.649109,173.891861 777.855957,158.080154 
	C778.379395,151.222061 777.111084,144.246399 777.044678,137.320419 
	C776.868286,118.924568 773.775391,101.096107 767.005188,83.975380 
	C762.092529,71.552261 755.300232,60.591179 743.777710,52.935425 
	C730.766663,44.290665 716.789246,43.011833 701.676514,44.802471 
	C685.138245,46.762016 669.675659,51.989418 655.273926,59.616364 
	C639.166870,68.146408 623.790100,78.125099 608.464661,88.043716 
	C588.500671,100.964355 570.847107,116.820587 552.999023,133.501709 
M774.943298,780.209167 
	C775.628784,774.535706 776.756714,768.873962 776.907104,763.186340 
	C777.215637,751.516235 777.390259,739.815674 776.893250,728.158630 
	C776.377075,716.051392 775.523926,703.908997 773.873718,691.911865 
	C771.730286,676.328674 768.803833,660.845886 765.911743,645.376465 
	C764.622498,638.481018 762.594604,631.723755 760.887573,624.845581 
	C759.302734,625.378723 758.417725,625.797424 757.487000,625.971436 
	C743.002014,628.679932 728.539307,631.521545 714.014343,633.997681 
	C697.362366,636.836487 680.687134,639.582153 663.958191,641.909973 
	C653.426941,643.375366 642.762390,643.863098 632.197083,645.120605 
	C630.155212,645.363647 627.688232,646.675293 626.450073,648.287170 
	C617.652466,659.739929 609.446533,671.656860 600.441162,682.938232 
	C582.172729,705.823730 563.517883,728.400757 545.060181,751.058533 
	C550.735535,756.276245 556.999817,762.318420 563.568115,768.009644 
	C574.335449,777.339417 584.910767,786.957458 596.266968,795.526367 
	C616.812378,811.028931 638.176270,825.321350 662.005066,835.534729 
	C681.949768,844.083435 702.238525,850.744141 724.348816,846.937439 
	C736.746460,844.802856 747.004639,838.771912 755.031616,828.845154 
	C766.380371,814.810303 771.423340,798.320007 774.943298,780.209167 
M58.040722,458.122589 
	C59.780258,462.629181 61.032051,467.404877 63.344257,471.595490 
	C73.061638,489.207062 87.586769,502.460724 103.731705,513.883240 
	C129.075485,531.813843 157.005539,544.859253 186.076340,555.457581 
	C201.648422,561.134583 217.451233,566.178650 233.555679,571.646118 
	C235.156509,566.760071 236.551041,562.506714 237.943619,558.252686 
	C250.143616,520.984619 264.509613,484.571960 280.903534,448.948242 
	C281.651825,447.322235 281.617737,444.795807 280.911316,443.127930 
	C276.126770,431.832214 270.635590,420.821594 266.179260,409.404083 
	C257.164062,386.306458 248.613663,363.026550 239.978500,339.782074 
	C237.658051,333.535767 235.722565,327.146423 233.554077,320.654175 
	C230.779480,321.577423 228.664093,322.355896 226.505829,322.988037 
	C201.724442,330.246155 177.412598,338.874451 153.966125,349.660034 
	C133.798279,358.937378 113.855797,368.949707 97.027290,383.734314 
	C87.091263,392.463562 77.267166,401.622986 69.019753,411.895233 
	C58.562241,424.920166 54.332798,440.355194 58.040722,458.122589 
M810.990723,565.510193 
	C832.028748,557.483521 853.369812,550.158447 874.021729,541.237976 
	C895.787476,531.836426 916.107971,519.675232 934.372131,504.290222 
	C947.518799,493.216064 959.109009,480.953888 965.615234,464.755524 
	C971.688416,449.635223 970.328491,434.543823 962.666382,420.537628 
	C952.904602,402.693512 938.061035,389.427887 921.545715,377.796265 
	C904.800415,366.002716 887.149841,355.808075 868.222900,348.173981 
	C843.492310,338.199005 818.372070,329.190186 793.024170,319.616394 
	C792.017456,322.150482 791.439941,323.431152 790.993103,324.755920 
	C787.132690,336.200989 783.814941,347.860840 779.349854,359.063904 
	C768.194214,387.054108 756.479126,414.821045 745.150696,442.743378 
	C744.406250,444.578278 744.377747,447.236725 745.126892,449.054230 
	C748.752258,457.849091 753.162598,466.332581 756.554260,475.209320 
	C767.867920,504.819580 778.866516,534.550232 789.979309,564.237244 
	C790.847046,566.555420 791.664124,568.892639 792.478394,571.148071 
	C798.866089,569.282898 804.580933,567.614258 810.990723,565.510193 
M720.457520,387.037598 
	C730.149353,361.641815 739.841187,336.246063 750.085754,309.401947 
	C719.898193,304.168243 690.811523,299.125366 661.538269,294.050140 
	C680.751343,327.248199 699.454529,359.565216 718.473755,392.428314 
	C719.082764,390.606201 719.567932,389.154785 720.457520,387.037598 
M714.479431,505.017426 
	C697.111572,535.771790 679.743774,566.526245 662.065735,597.829895 
	C690.798218,592.860413 719.879822,587.830627 749.763062,582.662170 
	C739.196960,554.010864 729.163757,526.804626 719.130554,499.598419 
	C718.633667,499.715454 718.136780,499.832458 717.639893,499.949493 
	C716.742371,501.436646 715.844910,502.923798 714.479431,505.017426 
M293.002167,585.501587 
	C316.536285,589.585144 340.070435,593.668762 364.314911,597.875610 
	C344.956512,564.313477 326.393402,532.130127 307.145752,498.760010 
	C296.754211,526.984375 286.743927,554.173157 276.506958,581.977661 
	C282.151611,583.081299 287.202637,584.068848 293.002167,585.501587 
M324.521301,362.970856 
	C337.609436,340.425781 350.697601,317.880707 364.535095,294.044861 
	C334.702301,299.228485 305.881042,304.236389 276.999756,309.254700 
	C286.188385,338.128204 296.087006,365.467072 308.071381,393.253448 
	C313.801514,382.545624 318.894623,373.028137 324.521301,362.970856 
M543.838867,241.944199 
	C552.192017,241.944199 560.545166,241.944199 568.898376,241.944199 
	C569.109497,241.504639 569.320618,241.065079 569.531799,240.625519 
	C550.855530,218.264862 532.179321,195.904221 512.971863,172.907593 
	C493.655518,196.074158 474.968994,218.485367 456.196228,241.000031 
	C468.995483,241.000031 480.573120,241.000046 492.150757,241.000031 
	C504.308624,241.000015 516.466736,240.954620 528.624207,241.022507 
	C533.417603,241.049271 538.209473,241.328720 543.838867,241.944199 
M522.037415,708.440674 
	C522.524719,707.609009 522.902832,706.685059 523.515564,705.959351 
	C534.480713,692.973083 545.538147,680.064148 556.430603,667.017456 
	C560.842041,661.733521 564.906738,656.160156 569.298584,650.500183 
	C531.516235,650.500183 494.353851,650.500183 456.646790,650.500183 
	C474.680237,673.788452 492.704956,696.454712 513.229309,717.897583 
	C516.336731,714.562195 518.943787,711.763855 522.037415,708.440674 
z"/>
<path fill="#000000" opacity="1.000000" stroke="none" 
	d="
M739.468628,891.000000 
	C739.286804,890.353760 739.460510,889.228394 739.876770,889.130005 
	C759.114746,884.585266 774.761902,874.137756 787.779480,859.624268 
	C795.957520,850.506531 802.739075,840.221924 806.817261,828.705139 
	C811.487366,815.516724 815.132507,801.941406 818.690125,788.394226 
	C820.169861,782.759644 820.661743,776.780334 820.920471,770.927612 
	C821.505737,757.688110 822.459839,744.390564 821.804993,731.188965 
	C820.929688,713.544373 819.376709,695.865601 816.828735,678.388977 
	C813.702881,656.948975 809.248962,635.702576 805.451294,614.824097 
	C827.908813,606.782959 851.669617,599.123352 874.754150,589.790588 
	C902.374878,578.623962 929.060181,565.351929 952.664917,546.770264 
	C961.013550,540.198242 969.599304,533.757690 977.027527,526.222778 
	C991.036682,512.012390 1002.689148,495.952393 1008.920166,476.696777 
	C1016.348083,453.742401 1015.614563,430.995483 1006.238464,408.573975 
	C1000.259216,394.275391 991.571716,381.950806 981.173767,370.515259 
	C963.183899,350.730133 941.558228,335.927856 918.415588,323.070404 
	C895.058533,310.093811 870.592834,299.605286 845.314758,291.005798 
	C831.753906,286.392426 818.128723,281.968048 804.972473,277.604279 
	C808.958923,257.671997 813.481384,237.678131 816.813599,217.487793 
	C819.074036,203.791138 820.049316,189.842102 820.891174,175.962967 
	C821.723694,162.238480 822.486572,148.420746 821.829651,134.713425 
	C820.453735,106.004639 815.790161,77.850792 801.611694,52.271118 
	C787.837646,27.421038 767.913696,9.942111 739.779724,2.892837 
	C739.226379,2.754175 738.813843,2.053364 738.667847,1.307415 
	C834.304810,1.000000 929.609619,1.000000 1024.957275,1.000000 
	C1024.957275,297.549316 1024.957275,594.098694 1024.957275,891.000000 
	C929.979370,891.000000 834.958374,891.000000 739.468628,891.000000 
z"/>
<path fill="#000000" opacity="1.000000" stroke="none" 
	d="
M286.531342,0.999999 
	C286.709747,1.646412 286.533447,2.770254 286.112854,2.870634 
	C266.893341,7.457777 251.182739,17.794405 238.189163,32.382294 
	C228.157379,43.644974 221.132370,56.743877 215.979462,70.865723 
	C210.735870,85.236145 206.974777,100.007774 206.087891,115.284470 
	C205.024399,133.602890 203.831711,151.981995 204.266479,170.297501 
	C204.610168,184.775116 206.819000,199.277740 209.111359,213.623550 
	C212.530365,235.020203 216.751770,256.288605 220.652908,277.727722 
	C205.896240,282.585541 189.877487,287.359222 174.220459,293.116608 
	C141.088669,305.299713 108.928429,319.679443 79.975716,340.158203 
	C68.923599,347.975555 58.223740,356.597687 48.676479,366.163635 
	C34.485897,380.381958 23.078835,396.696960 16.870487,416.275299 
	C9.629183,439.111176 10.744963,461.354858 19.773554,483.448669 
	C25.451878,497.344116 33.853790,509.293793 43.809418,520.425598 
	C61.988888,540.752747 84.048454,555.842407 107.655846,568.950684 
	C133.701080,583.412659 161.111664,594.715088 189.360382,604.043823 
	C200.056061,607.575989 210.811874,610.926086 221.064087,614.206726 
	C217.043182,634.325745 212.526047,654.314331 209.195923,674.498840 
	C206.935135,688.201904 205.952713,702.156189 205.108887,716.041260 
	C204.274826,729.765503 203.513199,743.583313 204.170349,757.290527 
	C205.546890,786.002563 210.176056,814.175781 224.402603,839.736267 
	C238.200150,864.525940 258.053711,882.099731 286.213257,889.106995 
	C286.767303,889.244873 287.181488,889.944580 287.330444,890.691101 
	C191.695175,891.000000 96.390350,891.000000 1.042762,891.000000 
	C1.042762,594.450562 1.042762,297.901123 1.042762,1.000000 
	C96.020607,1.000000 191.041641,1.000000 286.531342,0.999999 
z"/>
<path fill="#000000" opacity="1.000000" stroke="none" 
	d="
M342.468628,891.000000 
	C342.290863,890.354126 342.488281,889.208435 342.886017,889.134094 
	C362.947113,885.384033 381.456940,877.465210 399.444489,868.158264 
	C419.040344,858.019226 437.650604,846.232544 454.838531,832.458374 
	C471.301514,819.265198 487.016724,805.139038 503.063721,791.426514 
	C506.306763,788.655212 509.563904,785.900452 512.992188,782.987061 
	C516.469604,785.977844 520.200806,788.905701 523.612183,792.167908 
	C541.491211,809.264954 560.538696,824.887451 580.604126,839.390747 
	C597.718689,851.761108 615.478027,862.918701 634.479919,872.060547 
	C650.060547,879.556396 665.961914,886.256958 683.193481,889.111450 
	C683.739258,889.201904 684.179443,889.929749 684.334412,890.680237 
	C570.312439,891.000000 456.624878,891.000000 342.468628,891.000000 
z"/>
<path fill="#000000" opacity="1.000000" stroke="none" 
	d="
M683.531372,0.999997 
	C683.376648,1.664800 682.872498,2.688165 682.112183,2.940857 
	C669.907043,6.997384 657.472717,10.444530 645.483459,15.052596 
	C626.078613,22.510864 608.282837,33.197029 591.314636,45.064697 
	C577.479553,54.741077 564.042664,65.046028 550.961487,75.724380 
	C537.985046,86.317207 525.673950,97.725113 512.899597,108.925926 
	C509.513092,106.011047 505.790497,103.082642 502.381165,99.826233 
	C484.499115,82.746216 465.522552,67.045654 445.395020,52.637463 
	C428.229065,40.349300 410.602478,28.944242 391.512451,19.906370 
	C375.891113,12.510719 360.035706,5.729162 342.807312,2.888526 
	C342.261505,2.798528 341.820801,2.070742 341.665558,1.320140 
	C455.687561,1.000000 569.375122,1.000000 683.531372,0.999997 
z"/>
<path fill="#000000" opacity="1.000000" stroke="none" 
	d="
M343.272583,469.685333 
	C339.908203,462.973267 336.961151,456.466217 333.543243,450.216766 
	C331.833557,447.090698 332.022400,444.704803 333.689636,441.632965 
	C347.888275,415.472229 361.314819,388.872131 376.174255,363.096344 
	C389.970703,339.164551 405.428070,316.195404 419.722046,292.541290 
	C422.939026,287.217743 427.837738,288.742188 431.755341,288.276337 
	C441.580292,287.107971 451.568756,287.161652 461.495667,287.031586 
	C493.418732,286.613190 525.345642,285.977570 557.266968,286.156952 
	C572.206482,286.240906 587.139404,287.965546 602.065063,289.082977 
	C603.088379,289.159607 604.360474,290.167145 604.954346,291.099915 
	C618.676147,312.651611 633.064941,333.824463 645.791138,355.952667 
	C661.997375,384.132080 676.802307,413.116058 692.344360,441.680786 
	C694.018860,444.758301 694.078247,447.130737 692.409058,450.256195 
	C681.502075,470.678497 671.336060,491.515076 659.894836,511.628571 
	C647.276733,533.810974 633.569702,555.374634 620.295288,577.182434 
	C616.513916,583.394653 612.163757,589.300659 608.848450,595.745239 
	C605.663269,601.937012 600.654968,603.778748 594.399414,603.998108 
	C584.807922,604.334473 575.218689,604.828552 565.624329,604.969727 
	C537.201843,605.388245 508.776611,605.960999 480.354004,605.886658 
	C464.002808,605.843933 447.656769,604.601929 431.303955,604.028076 
	C424.670898,603.795288 420.373383,600.933472 416.867004,595.044495 
	C400.829193,568.109192 384.104187,541.582764 368.087494,514.635254 
	C359.412384,500.039703 351.662628,484.894196 343.272583,469.685333 
M423.999939,436.451782 
	C421.960815,445.298157 423.379395,454.016846 424.997925,462.721100 
	C430.306183,491.267944 446.334442,512.234802 471.598602,525.665405 
	C489.673828,535.274292 509.270081,538.055847 529.683167,534.052917 
	C558.311401,528.438843 579.463684,512.588867 592.841797,487.023071 
	C602.270996,469.003601 605.095825,449.612640 601.077576,429.298157 
	C595.406921,400.629303 579.527466,379.546082 553.944641,366.159180 
	C538.964783,358.320618 522.773987,355.114655 505.486511,356.765839 
	C493.947266,357.867981 483.212036,360.834595 472.925507,365.646423 
	C459.212646,372.061035 448.203491,382.030365 439.488892,394.223694 
	C430.710754,406.505890 425.515472,420.396393 423.999939,436.451782 
z"/>
<path fill="#000000" opacity="1.000000" stroke="none" 
	d="
M266.831787,625.373230 
	C278.412384,627.929688 289.653748,630.379456 300.966888,632.433899 
	C312.314697,634.494568 323.724121,636.225403 335.124817,637.982117 
	C346.377228,639.715942 357.630249,641.479492 368.925354,642.891174 
	C376.894226,643.887085 384.957886,644.124634 392.926910,645.119690 
	C395.257660,645.410706 398.184418,646.546082 399.523071,648.298828 
	C413.416260,666.489929 426.786011,685.084351 440.837494,703.149658 
	C448.884003,713.494629 457.920654,723.069092 466.504700,732.996399 
	C471.557922,738.840393 476.597778,744.695923 481.608582,750.505615 
	C480.716919,751.201782 479.634064,751.880615 478.751770,752.760498 
	C454.931335,776.513550 428.923981,797.571411 400.657928,815.796997 
	C380.191193,828.993652 358.608124,839.981995 334.748840,845.531311 
	C319.653473,849.042297 304.469208,849.858154 289.630341,843.289490 
	C274.099731,836.414734 265.238617,823.702271 259.136719,808.819031 
	C253.901123,796.048889 250.715485,782.644470 249.975967,768.748413 
	C249.398880,757.904541 247.700775,747.022461 248.222397,736.240601 
	C249.036026,719.422913 250.615524,702.570618 253.144226,685.926453 
	C256.034882,666.899780 260.282135,648.077332 264.069885,629.192261 
	C264.364960,627.721008 265.681976,626.454712 266.831787,625.373230 
z"/>
<path fill="#000000" opacity="1.000000" stroke="none" 
	d="
M256.220825,90.459579 
	C260.149048,80.598595 264.326202,71.442307 270.836151,63.324062 
	C278.866699,53.309460 289.051483,47.344807 301.409821,45.055141 
	C319.500153,41.703484 336.673340,45.950424 353.509247,52.163784 
	C375.201111,60.169247 395.058044,71.621925 413.756287,85.055115 
	C425.107605,93.210159 436.270660,101.686401 446.976868,110.664024 
	C458.068573,119.964920 468.501495,130.051025 479.241180,139.773132 
	C479.952545,140.417130 480.821686,140.886841 481.687164,141.485855 
	C473.420502,150.854584 464.779999,160.061935 456.805725,169.814102 
	C442.982605,186.719223 429.469543,203.881775 416.036163,221.099976 
	C410.252411,228.513306 405.105011,236.421188 399.399475,243.899094 
	C398.249207,245.406677 395.963348,246.667496 394.067383,246.886948 
	C380.747803,248.428741 367.338318,249.271103 354.063812,251.105606 
	C337.989319,253.327072 322.003448,256.213135 306.009338,258.985382 
	C292.629333,261.304443 279.292694,263.873566 265.084595,266.488831 
	C263.840668,261.806641 262.167358,256.520782 261.057953,251.119110 
	C258.842194,240.330261 256.753204,229.508072 254.956543,218.642654 
	C253.390427,209.171341 251.935287,199.654160 251.080429,190.099152 
	C249.762329,175.366058 247.974731,160.563248 248.263916,145.826859 
	C248.611282,128.126526 249.730667,110.285965 255.898132,93.309593 
	C256.169220,92.563469 256.004852,91.659157 256.220825,90.459579 
z"/>
<path fill="#000000" opacity="1.000000" stroke="none" 
	d="
M553.249512,133.250702 
	C570.847107,116.820587 588.500671,100.964355 608.464661,88.043716 
	C623.790100,78.125099 639.166870,68.146408 655.273926,59.616364 
	C669.675659,51.989418 685.138245,46.762016 701.676514,44.802471 
	C716.789246,43.011833 730.766663,44.290665 743.777710,52.935425 
	C755.300232,60.591179 762.092529,71.552261 767.005188,83.975380 
	C773.775391,101.096107 776.868286,118.924568 777.044678,137.320419 
	C777.111084,144.246399 778.379395,151.222061 777.855957,158.080154 
	C776.649109,173.891861 775.301270,189.742111 772.863159,205.398041 
	C769.848755,224.754623 765.682739,243.932236 761.973999,263.179443 
	C761.733887,264.425873 761.149902,265.606049 760.848694,266.466125 
	C745.352417,263.611450 730.116699,260.765625 714.865051,258.008087 
	C703.532532,255.959167 692.212830,253.798386 680.824707,252.110626 
	C671.617798,250.746109 662.321777,249.970047 653.056946,249.013626 
	C645.890808,248.273865 638.678894,247.884140 631.559937,246.842636 
	C629.586060,246.553864 627.389282,244.862946 626.112000,243.191010 
	C613.092468,226.148575 600.593079,208.697449 587.237122,191.926926 
	C575.800903,177.567017 563.430176,163.951813 551.490295,149.992249 
	C549.047302,147.136047 546.682251,144.213181 544.492188,141.575073 
	C547.281067,138.928299 550.140076,136.214996 553.249512,133.250702 
z"/>
<path fill="#000000" opacity="1.000000" stroke="none" 
	d="
M774.715088,780.591553 
	C771.423340,798.320007 766.380371,814.810303 755.031616,828.845154 
	C747.004639,838.771912 736.746460,844.802856 724.348816,846.937439 
	C702.238525,850.744141 681.949768,844.083435 662.005066,835.534729 
	C638.176270,825.321350 616.812378,811.028931 596.266968,795.526367 
	C584.910767,786.957458 574.335449,777.339417 563.568115,768.009644 
	C556.999817,762.318420 550.735535,756.276245 545.060181,751.058533 
	C563.517883,728.400757 582.172729,705.823730 600.441162,682.938232 
	C609.446533,671.656860 617.652466,659.739929 626.450073,648.287170 
	C627.688232,646.675293 630.155212,645.363647 632.197083,645.120605 
	C642.762390,643.863098 653.426941,643.375366 663.958191,641.909973 
	C680.687134,639.582153 697.362366,636.836487 714.014343,633.997681 
	C728.539307,631.521545 743.002014,628.679932 757.487000,625.971436 
	C758.417725,625.797424 759.302734,625.378723 760.887573,624.845581 
	C762.594604,631.723755 764.622498,638.481018 765.911743,645.376465 
	C768.803833,660.845886 771.730286,676.328674 773.873718,691.911865 
	C775.523926,703.908997 776.377075,716.051392 776.893250,728.158630 
	C777.390259,739.815674 777.215637,751.516235 776.907104,763.186340 
	C776.756714,768.873962 775.628784,774.535706 774.715088,780.591553 
z"/>
<path fill="#000000" opacity="1.000000" stroke="none" 
	d="
M58.022034,457.690582 
	C54.332798,440.355194 58.562241,424.920166 69.019753,411.895233 
	C77.267166,401.622986 87.091263,392.463562 97.027290,383.734314 
	C113.855797,368.949707 133.798279,358.937378 153.966125,349.660034 
	C177.412598,338.874451 201.724442,330.246155 226.505829,322.988037 
	C228.664093,322.355896 230.779480,321.577423 233.554077,320.654175 
	C235.722565,327.146423 237.658051,333.535767 239.978500,339.782074 
	C248.613663,363.026550 257.164062,386.306458 266.179260,409.404083 
	C270.635590,420.821594 276.126770,431.832214 280.911316,443.127930 
	C281.617737,444.795807 281.651825,447.322235 280.903534,448.948242 
	C264.509613,484.571960 250.143616,520.984619 237.943619,558.252686 
	C236.551041,562.506714 235.156509,566.760071 233.555679,571.646118 
	C217.451233,566.178650 201.648422,561.134583 186.076340,555.457581 
	C157.005539,544.859253 129.075485,531.813843 103.731705,513.883240 
	C87.586769,502.460724 73.061638,489.207062 63.344257,471.595490 
	C61.032051,467.404877 59.780258,462.629181 58.022034,457.690582 
z"/>
<path fill="#000000" opacity="1.000000" stroke="none" 
	d="
M810.643188,565.727905 
	C804.580933,567.614258 798.866089,569.282898 792.478394,571.148071 
	C791.664124,568.892639 790.847046,566.555420 789.979309,564.237244 
	C778.866516,534.550232 767.867920,504.819580 756.554260,475.209320 
	C753.162598,466.332581 748.752258,457.849091 745.126892,449.054230 
	C744.377747,447.236725 744.406250,444.578278 745.150696,442.743378 
	C756.479126,414.821045 768.194214,387.054108 779.349854,359.063904 
	C783.814941,347.860840 787.132690,336.200989 790.993103,324.755920 
	C791.439941,323.431152 792.017456,322.150482 793.024170,319.616394 
	C818.372070,329.190186 843.492310,338.199005 868.222900,348.173981 
	C887.149841,355.808075 904.800415,366.002716 921.545715,377.796265 
	C938.061035,389.427887 952.904602,402.693512 962.666382,420.537628 
	C970.328491,434.543823 971.688416,449.635223 965.615234,464.755524 
	C959.109009,480.953888 947.518799,493.216064 934.372131,504.290222 
	C916.107971,519.675232 895.787476,531.836426 874.021729,541.237976 
	C853.369812,550.158447 832.028748,557.483521 810.643188,565.727905 
z"/>
<path fill="#000000" opacity="1.000000" stroke="none" 
	d="
M720.255249,387.370483 
	C719.567932,389.154785 719.082764,390.606201 718.473755,392.428314 
	C699.454529,359.565216 680.751343,327.248199 661.538269,294.050140 
	C690.811523,299.125366 719.898193,304.168243 750.085754,309.401947 
	C739.841187,336.246063 730.149353,361.641815 720.255249,387.370483 
z"/>
<path fill="#000000" opacity="1.000000" stroke="none" 
	d="
M714.713379,504.714172 
	C715.844910,502.923798 716.742371,501.436646 717.639893,499.949493 
	C718.136780,499.832458 718.633667,499.715454 719.130554,499.598419 
	C729.163757,526.804626 739.196960,554.010864 749.763062,582.662170 
	C719.879822,587.830627 690.798218,592.860413 662.065735,597.829895 
	C679.743774,566.526245 697.111572,535.771790 714.713379,504.714172 
z"/>
<path fill="#000000" opacity="1.000000" stroke="none" 
	d="
M292.627930,585.278992 
	C287.202637,584.068848 282.151611,583.081299 276.506958,581.977661 
	C286.743927,554.173157 296.754211,526.984375 307.145752,498.760010 
	C326.393402,532.130127 344.956512,564.313477 364.314911,597.875610 
	C340.070435,593.668762 316.536285,589.585144 292.627930,585.278992 
z"/>
<path fill="#000000" opacity="1.000000" stroke="none" 
	d="
M324.254517,363.240753 
	C318.894623,373.028137 313.801514,382.545624 308.071381,393.253448 
	C296.087006,365.467072 286.188385,338.128204 276.999756,309.254700 
	C305.881042,304.236389 334.702301,299.228485 364.535095,294.044861 
	C350.697601,317.880707 337.609436,340.425781 324.254517,363.240753 
z"/>
<path fill="#000000" opacity="1.000000" stroke="none" 
	d="
M543.420471,241.718658 
	C538.209473,241.328720 533.417603,241.049271 528.624207,241.022507 
	C516.466736,240.954620 504.308624,241.000015 492.150757,241.000031 
	C480.573120,241.000046 468.995483,241.000031 456.196228,241.000031 
	C474.968994,218.485367 493.655518,196.074158 512.971863,172.907593 
	C532.179321,195.904221 550.855530,218.264862 569.531799,240.625519 
	C569.320618,241.065079 569.109497,241.504639 568.898376,241.944199 
	C560.545166,241.944199 552.192017,241.944199 543.420471,241.718658 
z"/>
<path fill="#000000" opacity="1.000000" stroke="none" 
	d="
M521.794128,708.703125 
	C518.943787,711.763855 516.336731,714.562195 513.229309,717.897583 
	C492.704956,696.454712 474.680237,673.788452 456.646790,650.500183 
	C494.353851,650.500183 531.516235,650.500183 569.298584,650.500183 
	C564.906738,656.160156 560.842041,661.733521 556.430603,667.017456 
	C545.538147,680.064148 534.480713,692.973083 523.515564,705.959351 
	C522.902832,706.685059 522.524719,707.609009 521.794128,708.703125 
z"/>
<path fill="#61DAFB" opacity="1.000000" stroke="none" 
	d="
M423.999969,435.993134 
	C425.515472,420.396393 430.710754,406.505890 439.488892,394.223694 
	C448.203491,382.030365 459.212646,372.061035 472.925507,365.646423 
	C483.212036,360.834595 493.947266,357.867981 505.486511,356.765839 
	C522.773987,355.114655 538.964783,358.320618 553.944641,366.159180 
	C579.527466,379.546082 595.406921,400.629303 601.077576,429.298157 
	C605.095825,449.612640 602.270996,469.003601 592.841797,487.023071 
	C579.463684,512.588867 558.311401,528.438843 529.683167,534.052917 
	C509.270081,538.055847 489.673828,535.274292 471.598602,525.665405 
	C446.334442,512.234802 430.306183,491.267944 424.997925,462.721100 
	C423.379395,454.016846 421.960815,445.298157 423.999969,435.993134 
z"/>
</svg>